#!OML:ASF \\sashay\E\Suitcase\Project 1\Capture day 1\Session 1\Male1.ASF
:FULLY-SPECIFIED
:DEGREES
672
root 1.63141 16.9798 16.5018 3.39976 2.42024 3.8635
lowerback 4.19193 -1.61744 -7.61001
upperback -2.41615 -2.53464 2.44697
thorax -4.44849 -0.985517 7.05362
lowerneck -15.1598 0.988775 -4.57144
upperneck 17.9868 1.63844 3.97949
head 7.9887 0.865468 2.26414
rclavicle 3.28119e-014 -7.95139e-015
rhumerus -33.5584 -20.6518 -65.5476
rradius 22.4668
rwrist -10.7109
rhand -12.2119 23.2286
rfingers 7.12502
rthumb 13.8528 -6.29011
lclavicle 3.28119e-014 -7.95139e-015
lhumerus -29.9025 -0.258861 84.7486
lradius 39.5291
lwrist -2.33907
lhand -2.78497 43.8231
lfingers 7.12502
lthumb 22.9203 72.4808
rfemur -29.3943 2.23427 12.6263
rtibia 17.2506
rfoot -14.5958 -17.6118
rtoes 5.72685
lfemur 6.20671 -4.48685 -29.0492
ltibia 12.8485
lfoot -11.6779 -5.64299
ltoes 15.8306
673
root 1.60975 16.9713 16.6077 3.55969 2.5937 3.51102
lowerback 4.27811 -1.62489 -7.21706
upperback -2.49457 -2.52555 2.49888
thorax -4.59311 -0.983119 6.89
lowerneck -15.2307 1.07689 -4.24203
upperneck 17.9308 1.70605 3.87368
head 7.98373 0.910454 2.18162
rclavicle 2.02388e-014 1.03368e-014
rhumerus -33.4281 -20.0927 -65.9976
rradius 22.0611
rwrist -11.6986
rhand -12.6639 23.4815
rfingers 7.12502
rthumb 13.4172 -6.06641
lclavicle 2.02388e-014 1.03368e-014
lhumerus -29.9433 -0.856427 84.8717
lradius 39.7115
lwrist -2.03967
lhand -3.7294 42.8671
lfingers 7.12502
lthumb 22.0138 71.6343
rfemur -29.4933 3.10629 12.7257
rtibia 16.6696
rfoot -15.2108 -18.0191
rtoes 4.48485
lfemur 6.62599 -4.50444 -28.5182
ltibia 12.5
lfoot -11.7101 -5.66028
ltoes 16.1479
674
root 1.58526 16.9678 16.7277 3.96538 2.6792 3.78016
lowerback 3.95733 -1.67746 -7.54309
upperback -2.53816 -2.59624 2.45129
thorax -4.43498 -1.01503 7.01663
lowerneck -15.4642 1.03649 -4.21924
upperneck 17.9039 1.66383 3.8287
head 8.01912 0.888992 2.16086
rclavicle 1.79403e-014 -1.19271e-014
rhumerus -33.2834 -18.7272 -66.6609
rradius 21.936
rwrist -13.5927
rhand -12.9261 22.2186
rfingers 7.12502
rthumb 13.1644 -7.34577
lclavicle 1.79403e-014 -1.19271e-014
lhumerus -29.7797 -0.912255 84.9862
lradius 39.8782
lwrist -2.07519
lhand -3.17284 43.7632
lfingers 7.12502
lthumb 22.5481 72.4666
rfemur -29.7758 3.52142 12.3164
rtibia 16.2579
rfoot -15.7966 -18.3803
rtoes 3.04203
lfemur 6.61663 -4.55709 -28.6667
ltibia 12.4729
lfoot -11.7901 -5.96686
ltoes 16.4786
675
root 1.56301 16.9639 16.8411 3.99078 2.6703 3.92195
lowerback 4.1141 -1.64799 -7.79146
upperback -2.54983 -2.58434 2.45559
thorax -4.53017 -0.995969 7.17067
lowerneck -15.6127 1.03404 -3.94373
upperneck 17.9719 1.6723 3.4681
head 8.07476 0.875542 1.99888
rclavicle -1.75427e-014 7.95139e-015
rhumerus -33.2589 -17.4142 -67.3065
rradius 21.7835
rwrist -15.6375
rhand -13.5118 22.3768
rfingers 7.12502
rthumb 12.5998 -7.2232
lclavicle -1.75427e-014 7.95139e-015
lhumerus -29.6682 -1.12778 85.1307
lradius 39.9668
lwrist -1.95042
lhand -2.89143 43.7861
lfingers 7.12502
lthumb 22.8182 72.4564
rfemur -29.6689 2.48412 12.7929
rtibia 16.1807
rfoot -15.6831 -17.2159
rtoes 2.53693
lfemur 7.00466 -4.50042 -28.7185
ltibia 12.3891
lfoot -11.9262 -6.61349
ltoes 16.3874
676
root 1.5454 16.9489 16.9476 4.136 2.72199 4.16135
lowerback 4.17309 -1.64589 -7.99896
upperback -2.56064 -2.6025 2.38877
thorax -4.56776 -0.997125 7.22234
lowerneck -15.8961 1.12096 -3.53236
upperneck 18.2094 1.7672 3.13493
head 8.20884 0.914382 1.83759
rclavicle -2.37299e-015 -1.66979e-014
rhumerus -33.596 -17.6373 -67.2862
rradius 22.0425
rwrist -15.2012
rhand -13.5103 22.3374
rfingers 7.12502
rthumb 12.6012 -7.26257
lclavicle -2.37299e-015 -1.66979e-014
lhumerus -29.703 -1.31308 85.2497
lradius 40.2566
lwrist -1.95397
lhand -3.43177 43.1388
lfingers 7.12502
lthumb 22.2995 71.8721
rfemur -29.9721 2.04401 12.8765
rtibia 16.5901
rfoot -14.5451 -17.2388
rtoes 2.53592
lfemur 7.44411 -4.64138 -28.9089
ltibia 12.0986
lfoot -11.5672 -6.91856
ltoes 15.9074
